ffmpeg version 7.0 Copyright (c) 2000-2024 the FFmpeg developers
  built with Apple clang version 15.0.0 (clang-1500.3.9.4)
  configuration: --prefix=/opt/homebrew/Cellar/ffmpeg/7.0 --enable-shared --enable-pthreads --enable-version3 --cc=clang --host-cflags= --host-ldflags='-Wl,-ld_classic' --enable-ffplay --enable-gnutls --enable-gpl --enable-libaom --enable-libaribb24 --enable-libbluray --enable-libdav1d --enable-libharfbuzz --enable-libjxl --enable-libmp3lame --enable-libopus --enable-librav1e --enable-librist --enable-librubberband --enable-libsnappy --enable-libsrt --enable-libssh --enable-libsvtav1 --enable-libtesseract --enable-libtheora --enable-libvidstab --enable-libvmaf --enable-libvorbis --enable-libvpx --enable-libwebp --enable-libx264 --enable-libx265 --enable-libxml2 --enable-libxvid --enable-lzma --enable-libfontconfig --enable-libfreetype --enable-frei0r --enable-libass --enable-libopencore-amrnb --enable-libopencore-amrwb --enable-libopenjpeg --enable-libopenvino --enable-libspeex --enable-libsoxr --enable-libzmq --enable-libzimg --disable-libjack --disable-indev=jack --enable-videotoolbox --enable-audiotoolbox --enable-neon
  libavutil      59.  8.100 / 59.  8.100
  libavcodec     61.  3.100 / 61.  3.100
  libavformat    61.  1.100 / 61.  1.100
  libavdevice    61.  1.100 / 61.  1.100
  libavfilter    10.  1.100 / 10.  1.100
  libswscale      8.  1.100 /  8.  1.100
  libswresample   5.  1.100 /  5.  1.100
  libpostproc    58.  1.100 / 58.  1.100
Input #0, jpeg_pipe, from 'fd:':
  Duration: N/A, bitrate: N/A
  Stream #0:0: Video: mjpeg (Baseline), yuvj420p(pc, bt470bg/unknown/unknown), 640x360 [SAR 1:1 DAR 16:9], 25 fps, 25 tbr, 25 tbn
[out#0/mp4 @ 0x13f005990] Codec AVOption preset (Encoding preset) has not been used for any stream. The most likely reason is either wrong type (e.g. a video option with no video streams) or that it is a private option of some encoder which was not actually used for any stream.
Stream mapping:
  Stream #0:0 -> #0:0 (mjpeg (native) -> h264 (h264_videotoolbox))
[swscaler @ 0x178018000] deprecated pixel format used, make sure you did set range correctly
    Last message repeated 2 times
[swscaler @ 0x300008000] deprecated pixel format used, make sure you did set range correctly
Output #0, mp4, to '/Users/arjun.bhatt/Downloads/sandbox/finals/output_120000s_640x360_30fps.mp4':
  Metadata:
    encoder         : Lavf61.1.100
  Stream #0:0: Video: h264 (avc1 / 0x31637661), yuv420p(progressive), 640x360 [SAR 1:1 DAR 16:9], q=2-31, 1200 kb/s, 30 fps, 15360 tbn
      Metadata:
        encoder         : Lavc61.3.100 h264_videotoolbox
[h264_videotoolbox @ 0x13f006890] Color range not set for yuv420p. Using MPEG range.
frame=   60 fps=0.0 q=-0.0 size=     256KiB time=00:00:01.96 bitrate=1066.5kbits/s speed=3.91x    frame=  142 fps=141 q=-0.0 size=     512KiB time=00:00:04.70 bitrate= 892.5kbits/s speed=4.66x    frame=  229 fps=152 q=-0.0 size=    1024KiB time=00:00:07.60 bitrate=1103.8kbits/s speed=5.03x    frame=  304 fps=151 q=-0.0 size=    1536KiB time=00:00:10.10 bitrate=1245.9kbits/s speed=5.01x    frame=  385 fps=153 q=-0.0 size=    2048KiB time=00:00:12.80 bitrate=1310.8kbits/s speed=5.08x    frame=  463 fps=153 q=-0.0 size=    2560KiB time=00:00:15.40 bitrate=1361.8kbits/s speed=5.09x    frame=  546 fps=155 q=-0.0 size=    3072KiB time=00:00:18.16 bitrate=1385.3kbits/s speed=5.15x    frame=  634 fps=157 q=-0.0 size=    3584KiB time=00:00:21.10 bitrate=1391.5kbits/s speed=5.23x    frame=  722 fps=159 q=-0.0 size=    3840KiB time=00:00:24.03 bitrate=1308.9kbits/s speed=5.29x    frame=  807 fps=160 q=-0.0 size=    4352KiB time=00:00:26.86 bitrate=1327.0kbits/s speed=5.33x    frame=  895 fps=161 q=-0.0 size=    4864KiB time=00:00:29.80 bitrate=1337.1kbits/s speed=5.38x    frame=  988 fps=163 q=-0.0 size=    5632KiB time=00:00:32.90 bitrate=1402.4kbits/s speed=5.44x    frame= 1072 fps=164 q=-0.0 size=    6400KiB time=00:00:35.70 bitrate=1468.6kbits/s speed=5.45x    frame= 1146 fps=162 q=-0.0 size=    6912KiB time=00:00:38.16 bitrate=1483.6kbits/s speed=5.41x    frame= 1227 fps=162 q=-0.0 size=    7680KiB time=00:00:40.86 bitrate=1539.5kbits/s speed=5.41x    frame= 1299 fps=161 q=-0.0 size=    8192KiB time=00:00:43.26 bitrate=1551.1kbits/s speed=5.37x    frame= 1368 fps=160 q=-0.0 size=    8704KiB time=00:00:45.56 bitrate=1564.8kbits/s speed=5.32x    frame= 1438 fps=159 q=-0.0 size=    9472KiB time=00:00:47.90 bitrate=1619.9kbits/s speed=5.28x    frame= 1513 fps=158 q=-0.0 size=    9984KiB time=00:00:50.40 bitrate=1622.8kbits/s speed=5.27x    frame= 1602 fps=159 q=-0.0 size=   10496KiB time=00:00:53.36 bitrate=1611.2kbits/s speed= 5.3x    frame= 1681 fps=159 q=-0.0 size=   10752KiB time=00:00:56.00 bitrate=1572.9kbits/s speed= 5.3x    frame= 1752 fps=158 q=-0.0 size=   11264KiB time=00:00:58.36 bitrate=1581.0kbits/s speed=5.27x    frame= 1817 fps=157 q=-0.0 size=   11776KiB time=00:01:00.53 bitrate=1593.7kbits/s speed=5.23x    frame= 1895 fps=157 q=-0.0 size=   12032KiB time=00:01:03.13 bitrate=1561.2kbits/s speed=5.22x    frame= 1958 fps=156 q=-0.0 size=   12288KiB time=00:01:05.23 bitrate=1543.1kbits/s speed=5.18x    frame= 2034 fps=155 q=-0.0 size=   12800KiB time=00:01:07.76 bitrate=1547.3kbits/s speed=5.18x    frame= 2089 fps=154 q=-0.0 size=   13056KiB time=00:01:09.60 bitrate=1536.7kbits/s speed=5.12x    frame= 2153 fps=153 q=-0.0 size=   13568KiB time=00:01:11.73 bitrate=1549.5kbits/s speed=5.09x    frame= 2218 fps=152 q=-0.0 size=   14080KiB time=00:01:13.90 bitrate=1560.8kbits/s speed=5.06x    frame= 2277 fps=151 q=-0.0 size=   14592KiB time=00:01:15.86 bitrate=1575.6kbits/s speed=5.02x    frame= 2346 fps=150 q=-0.0 size=   15104KiB time=00:01:18.16 bitrate=1582.9kbits/s speed=5.01x    frame= 2407 fps=149 q=-0.0 size=   15616KiB time=00:01:20.20 bitrate=1595.1kbits/s speed=4.98x    frame= 2465 fps=148 q=-0.0 size=   15872KiB time=00:01:22.13 bitrate=1583.1kbits/s speed=4.94x    frame= 2538 fps=148 q=-0.0 size=   16384KiB time=00:01:24.56 bitrate=1587.1kbits/s speed=4.94x    frame= 2596 fps=147 q=-0.0 size=   16896KiB time=00:01:26.50 bitrate=1600.1kbits/s speed=4.91x    frame= 2646 fps=146 q=-0.0 size=   17152KiB time=00:01:28.16 bitrate=1593.7kbits/s speed=4.86x    frame= 2727 fps=146 q=-0.0 size=   17664KiB time=00:01:30.86 bitrate=1592.5kbits/s speed=4.88x    frame= 2797 fps=146 q=-0.0 size=   17920KiB time=00:01:33.20 bitrate=1575.1kbits/s speed=4.87x    frame= 2865 fps=146 q=-0.0 size=   18432KiB time=00:01:35.46 bitrate=1581.7kbits/s speed=4.86x    frame= 2923 fps=145 q=-0.0 size=   18688KiB time=00:01:37.40 bitrate=1571.8kbits/s speed=4.83x    frame= 3001 fps=145 q=-0.0 size=   19200KiB time=00:01:40.00 bitrate=1572.9kbits/s speed=4.84x    frame= 3065 fps=145 q=-0.0 size=   19456KiB time=00:01:42.13 bitrate=1560.5kbits/s speed=4.83x    frame= 3131 fps=145 q=-0.0 size=   19968KiB time=00:01:44.33 bitrate=1567.8kbits/s speed=4.82x    frame= 3200 fps=144 q=-0.0 size=   20480KiB time=00:01:46.63 bitrate=1573.4kbits/s speed=4.81x    frame= 3260 fps=144 q=-0.0 size=   20736KiB time=00:01:48.63 bitrate=1563.7kbits/s speed=4.79x    frame= 3326 fps=144 q=-0.0 size=   21248KiB time=00:01:50.83 bitrate=1570.5kbits/s speed=4.78x    frame= 3387 fps=143 q=-0.0 size=   21760KiB time=00:01:52.86 bitrate=1579.4kbits/s speed=4.77x    frame= 3450 fps=143 q=-0.0 size=   22272KiB time=00:01:54.96 bitrate=1587.0kbits/s speed=4.75x    frame= 3524 fps=143 q=-0.0 size=   22528KiB time=00:01:57.43 bitrate=1571.5kbits/s speed=4.76x    frame= 3577 fps=142 q=-0.0 size=   23040KiB time=00:01:59.20 bitrate=1583.4kbits/s speed=4.73x    [out#0/mp4 @ 0x13f005990] video:23353KiB audio:0KiB subtitle:0KiB other streams:0KiB global headers:0KiB muxing overhead: 0.070213%
frame= 3600 fps=141 q=-0.0 Lsize=   23369KiB time=00:01:59.96 bitrate=1595.8kbits/s speed= 4.7x    
bench: utime=7.296s stime=0.950s rtime=25.540s
bench: maxrss=72155136KiB
